/* XPM */
static char * wall4_xpm[] = {
"32 32 313 2",
"  	c None",
". 	c #6AD6F6",
"+ 	c #5BC6F3",
"@ 	c #5DC5F5",
"# 	c #61C6F6",
"$ 	c #65C6F8",
"% 	c #68C7F9",
"& 	c #6FC6FA",
"* 	c #78C6FC",
"= 	c #80C5FD",
"- 	c #80C6FD",
"; 	c #79C6FC",
"> 	c #6FC6FB",
", 	c #67C6F9",
"' 	c #65C5F7",
") 	c #60C5F6",
"! 	c #5CC4F5",
"~ 	c #58C5F3",
"{ 	c #54C5F1",
"] 	c #52C5F1",
"^ 	c #51C5F1",
"/ 	c #50C6F0",
"( 	c #50C5F1",
"_ 	c #50C4F1",
": 	c #51C4F1",
"< 	c #67D5F4",
"[ 	c #68D5F5",
"} 	c #1468C7",
"| 	c #073BA2",
"1 	c #0C3AA7",
"2 	c #133AB1",
"3 	c #1A3ABE",
"4 	c #233ACA",
"5 	c #2A3AD4",
"6 	c #3239DD",
"7 	c #353AE1",
"8 	c #363AE1",
"9 	c #323ADD",
"0 	c #2B3AD6",
"a 	c #1C39BE",
"b 	c #1439B3",
"c 	c #0D3AA8",
"d 	c #073A9F",
"e 	c #043A99",
"f 	c #023A94",
"g 	c #013A93",
"h 	c #013A92",
"i 	c #013A91",
"j 	c #013B95",
"k 	c #1468C6",
"l 	c #6BD7F6",
"m 	c #55C9F1",
"n 	c #033B97",
"o 	c #021B53",
"p 	c #051852",
"q 	c #09185D",
"r 	c #0D186A",
"s 	c #101875",
"t 	c #14187F",
"u 	c #171887",
"v 	c #17188C",
"w 	c #18188C",
"x 	c #171888",
"y 	c #151880",
"z 	c #101876",
"A 	c #0C186A",
"B 	c #09185E",
"C 	c #051753",
"D 	c #03184A",
"E 	c #011844",
"F 	c #011841",
"G 	c #011840",
"H 	c #001840",
"I 	c #001841",
"J 	c #011B51",
"K 	c #053B9E",
"L 	c #58C5F2",
"M 	c #55C9F2",
"N 	c #023A91",
"O 	c #01142E",
"P 	c #01142F",
"Q 	c #031433",
"R 	c #041438",
"S 	c #05143C",
"T 	c #061441",
"U 	c #051442",
"V 	c #061443",
"W 	c #061440",
"X 	c #05143D",
"Y 	c #021430",
"Z 	c #00142B",
"` 	c #00142A",
" .	c #00142D",
"..	c #04184D",
"+.	c #0A39A3",
"@.	c #59C4F2",
"#.	c #55C9F0",
"$.	c #00183F",
"%.	c #001429",
"&.	c #4A4D54",
"*.	c #797B7E",
"=.	c #707275",
"-.	c #626469",
";.	c #6F7073",
">.	c #747687",
",.	c #113AAD",
"'.	c #5CC4F4",
").	c #023A90",
"!.	c #585A60",
"~.	c #EBEBEB",
"{.	c #FFFFFF",
"].	c #FEFEFE",
"^.	c #909193",
"/.	c #D5D5D6",
"(.	c #ECECEC",
"_.	c #AEAFB0",
":.	c #F7F7F7",
"<.	c #193AB7",
"[.	c #61C4F6",
"}.	c #54C8F2",
"|.	c #023B90",
"1.	c #595B61",
"2.	c #FDFDFD",
"3.	c #919294",
"4.	c #53565B",
"5.	c #9E9FA0",
"6.	c #203AC3",
"7.	c #66C5F8",
"8.	c #53C8F2",
"9.	c #54575C",
"0.	c #273CCD",
"a.	c #6AC5FA",
"b.	c #2F3BD6",
"c.	c #73C5FC",
"d.	c #53C8F1",
"e.	c #033A92",
"f.	c #9A9B9D",
"g.	c #BABBBC",
"h.	c #343BDD",
"i.	c #7CC5FD",
"j.	c #9B9C9E",
"k.	c #0E1C2D",
"l.	c #2A303B",
"m.	c #DFDFDF",
"n.	c #BFBFCD",
"o.	c #82C5FE",
"p.	c #54C8F1",
"q.	c #023A93",
"r.	c #00142C",
"s.	c #2B313C",
"t.	c #DEDFDF",
"u.	c #BEBFC1",
"v.	c #1B1C89",
"w.	c #343ADF",
"x.	c #7DC6FD",
"y.	c #57C7F2",
"z.	c #033A95",
"A.	c #011842",
"B.	c #272E39",
"C.	c #BEBFC0",
"D.	c #0D193F",
"E.	c #161984",
"F.	c #2E3AD9",
"G.	c #74C6FB",
"H.	c #5BC7F3",
"I.	c #073A9A",
"J.	c #595C6D",
"K.	c #BFBFC0",
"L.	c #06182D",
"M.	c #05143A",
"N.	c #13187B",
"O.	c #263AD0",
"P.	c #6BC6FA",
"Q.	c #5DC7F4",
"R.	c #5966AB",
"S.	c #EBEBEC",
"T.	c #292F3A",
"U.	c #0A192C",
"V.	c #041436",
"W.	c #0F1871",
"X.	c #1F3AC5",
"Y.	c #67C6F8",
"Z.	c #60C6F5",
"`.	c #EBECF1",
" +	c #E5E5E6",
".+	c #B5B6B7",
"++	c #0B192B",
"@+	c #DBDCDC",
"#+	c #06182B",
"$+	c #021431",
"%+	c #56587A",
"&+	c #183AB9",
"*+	c #61C7F6",
"=+	c #63C6F5",
"-+	c #121D2D",
";+	c #CCCDCD",
">+	c #66686D",
",+	c #DFDFE0",
"'+	c #143BAC",
")+	c #5FC6F4",
"!+	c #69C6F6",
"~+	c #66686C",
"{+	c #EEEEEE",
"]+	c #103AA2",
"^+	c #5CC6F3",
"/+	c #6DC6F7",
"(+	c #6A6C70",
"_+	c #0C3B9B",
":+	c #59C6F2",
"<+	c #75C6F9",
"[+	c #D6D6E5",
"}+	c #E3E3E8",
"|+	c #E3E3E4",
"1+	c #E9E9EA",
"2+	c #0A3B95",
"3+	c #56C7F1",
"4+	c #7DC7FD",
"5+	c #353AE0",
"6+	c #17188A",
"7+	c #061442",
"8+	c #929395",
"9+	c #C1C1C2",
"0+	c #E8E8E8",
"a+	c #B9B9BA",
"b+	c #D6D7D7",
"c+	c #E1E1E2",
"d+	c #063C92",
"e+	c #54C7F1",
"f+	c #82C7FD",
"g+	c #373AE1",
"h+	c #001941",
"i+	c #013B92",
"j+	c #52C8F1",
"k+	c #3439DF",
"l+	c #001940",
"m+	c #75C7FB",
"n+	c #151884",
"o+	c #05143F",
"p+	c #6CC7FA",
"q+	c #12187B",
"r+	c #05143B",
"s+	c #66C7F9",
"t+	c #1F3AC3",
"u+	c #0E186F",
"v+	c #031436",
"w+	c #4C4F54",
"x+	c #494C52",
"y+	c #021529",
"z+	c #013B91",
"A+	c #63C6F7",
"B+	c #1739B7",
"C+	c #0A1863",
"D+	c #023B91",
"E+	c #53C9F1",
"F+	c #5EC6F6",
"G+	c #113AAC",
"H+	c #061858",
"I+	c #54C9F0",
"J+	c #5BC5F3",
"K+	c #0A3AA2",
"L+	c #04184E",
"M+	c #01142D",
"N+	c #041437",
"O+	c #051440",
"P+	c #031437",
"Q+	c #54C9F1",
"R+	c #5AC7F3",
"S+	c #053B9D",
"T+	c #011843",
"U+	c #021849",
"V+	c #061854",
"W+	c #0D186C",
"X+	c #141880",
"Y+	c #18178C",
"Z+	c #19178C",
"`+	c #101874",
" @	c #0D1769",
".@	c #041852",
"+@	c #021B54",
"@@	c #023B98",
"#@	c #6EDAF6",
"$@	c #1468C5",
"%@	c #013B96",
"&@	c #013A90",
"*@	c #033A98",
"=@	c #073A9E",
"-@	c #1439B1",
";@	c #1B39BF",
">@	c #223ACA",
",@	c #2B3AD5",
"'@	c #313ADC",
")@	c #2A3AD5",
"!@	c #223AC9",
"~@	c #1A39BD",
"{@	c #0D3AA7",
"]@	c #1568C7",
"^@	c #70DCF5",
"/@	c #4FC5F1",
"(@	c #50C5F0",
"_@	c #4FC5F0",
":@	c #50C6F1",
"<@	c #51C5F2",
"[@	c #5CC5F5",
"}@	c #5EC5F6",
"|@	c #64C5F8",
"1@	c #66C6FA",
"2@	c #79C6FD",
"3@	c #77C6FB",
"4@	c #6EC6FB",
"5@	c #5FC6F6",
"6@	c #5CC6F5",
"7@	c #59C7F4",
"8@	c #6DD7F6",
"  . + @ # $ % & * = - ; > , ' ) ! ~ { ] ^ / / ( _ : : : : : <   ",
"[ } | 1 2 3 4 5 6 7 8 9 0 4 a b c d e f g h h h h i h h i j k l ",
"m n o p q r s t u v w x y z A B C D E F F G H H G H H H I J K L ",
"M N F O P Q R S T U V W X R Q Y Z ` ` ` ` ` ` ` ` ` ` `  ...+.@.",
"#.N $.Z %.%.%.%.` ` ` &.*.*.*.*.=.%.%.-.*.*.*.*.;.*.*.*.*.>.,.'.",
"m ).H Z %.%.%.%.%.%.!.~.{.{.{.].^.%.%./.{.{.{.(._.{.{.{.{.:.<.[.",
"}.|.I ` %.%.%.%.%.1.~.{.{.{.2.3.%.%.%./.{.{.(.4.5.{.{.{.{.:.6.7.",
"8.|.I Z %.%.%.%.!.~.{.{.{.].3.%.%.%.%./.{.(.9.%.5.{.{.{.{.:.0.a.",
"8.|.I Z %.%.%.!.~.{.{.{.].^.%.%.%.%.%./.(.4.%.%.5.{.{.{.{.:.b.c.",
"d.e.$.Z %.%.1.~.{.{.{.].f.%.%.%.%.%.%.g.4.%.%.%.5.{.{.{.{.:.h.i.",
"d.e.$.Z %.!.~.{.{.{.2.j.%.%.%.%.%.%.%.k.%.%.%.l.m.{.{.{.{.n.8 o.",
"p.q.H r.!.~.{.{.{.].j.%.%.%.%.%.%.%.%.%.%.%.s.t.{.{.{.{.u.v.w.x.",
"y.z.A.!.~.{.{.{.].f.%.%.%.%.%.%.%.%.%.%.%.B.t.{.{.{.{.C.D.E.F.G.",
"H.I.J.~.{.{.{.].f.%.%.%.%.%.%.%.%.%.%.%.B.t.{.{.{.{.K.L.M.N.O.P.",
"Q.R.S.{.{.{.2.j.%.%.%.%.%.%.%.%.%.%.%.T.t.{.{.{.{.K.U.` V.W.X.Y.",
"Z.`.{.{.{.{. +.+.+.+.+.+.+.+.+.+.+++%.K.{.{.{.{.@+#+%.%.$+%+&+*+",
"=+:.{.{.{.{.{.{.{.{.{.{.{.{.{.{.:.-+%./.{.{.{.{.;+%.%.%.>+,+'+)+",
"!+:.{.{.{.{.{.{.{.{.{.{.{.{.{.{.:.-+%./.{.{.{.{.;+%.%.~+{+:.]+^+",
"/+:.{.{.{.{.{.{.{.{.{.{.{.{.{.{.:.-+%./.{.{.{.{.;+%.(+{+{.:._+:+",
"<+[+}+|+|+|+|+|+|+|+|+1+{.{.{.{.:.-+%./.{.{.{.{.;+(+{+{.{.:.2+3+",
"4+5+6+7+` %.%.%.%.%.%.8+{.{.{.{.:.-+%.9+0+0+0+0+a+b+0+0+0+c+d+e+",
"f+g+w V %.%.%.%.%.%.%.8+{.{.{.{.:.-+%.%.%.%.%.%.%.%.%.%.` h+i+j+",
"4+k+6+7+%.%.%.%.%.%.%.8+{.{.{.{.:.-+%.%.%.%.%.%.%.%.%.%.` l+i+j+",
"m+F.n+o+` %.%.%.%.%.%.8+{.{.{.{.:.-+%.%.%.%.%.%.%.%.%.%.` F h d.",
"p+O.q+r+%.%.%.%.%.%.%.8+{.{.{.{.:.-+%.%.%.%.%.%.%.%.%.%.` F i+d.",
"s+t+u+v+%.%.%.%.%.%.%.B.w+w+w+w+x+y+%.%.%.%.%.%.%.%.%.%.` I z+8.",
"A+B+C+$+%.%.%.%.%.%.%.%.%.%.%.%.%.%.%.%.%.%.%.%.%.%.%.%.` I D+E+",
"F+G+H+O %.%.%.%.%.%.%.%.%.%.%.%.%.%.%.%.` ` ` ` %.%.%.%.` H N I+",
"J+K+L+ .` ` ` ` ` ` ` ` ` ` ` M+P Q N+S W 7+7+O+S P+Q P r.F h Q+",
"R+S+J F G G G G H H H H H T+U+V+B W+z X+x Y+Z+u t `+ @q .@+@@@m ",
"#@$@%@h &@&@&@&@&@i i i g *@=@c -@;@>@,@9 7 7 '@)@!@~@-@{@| ]@^@",
"  . /@/@(@_@_@_@_@( ( ( :@<@~ [@}@|@1@> 2@- = 3@4@, A+5@6@7@8@  "};
