/* XPM */
static char * P8_xpm[] = {
"32 32 5 1",
" 	c None",
".	c #F30B05",
"+	c #F34405",
"@	c #F37C05",
"#	c #F3AB05",
"                                ",
"                                ",
"                                ",
"                                ",
"           ..........           ",
"           ..........           ",
"        ................        ",
"        ...+++++++++....        ",
"      .....+++++++++......      ",
"      ...++++++++++++++...      ",
"      ...+++@@@@@@@@+++...      ",
"    .....+++@@@@@@@@+++.....    ",
"    ...+++@@@@@@@@@@@@+++...    ",
"    ...+++@@@######@@@+++...    ",
"    ...+++@@@######@@@+++...    ",
"    ...+++@@@######@@@+++...    ",
"    ...+++@@@######@@@+++...    ",
"    ...+++@@@######@@@+++...    ",
"    ...+++@@@######@@@+++...    ",
"    ...+++@@@@@@@@@@@@+++...    ",
"    .....+++@@@@@@@@+++.....    ",
"      ...+++@@@@@@@@+++...      ",
"      ...++++++++++++++...      ",
"      .....+++++++++......      ",
"        ...+++++++++....        ",
"        ................        ",
"           ..........           ",
"           ..........           ",
"                                ",
"                                ",
"                                ",
"                                "};
