/* XPM */
static char * P8 (copy)_xpm[] = {
"32 32 3 1",
" 	c None",
".	c #F36605",
"+	c #FFF100",
"                                ",
"                                ",
"                                ",
"                                ",
"           ..........           ",
"           ..........           ",
"        ................        ",
"        ...+++++++++....        ",
"      .....+++++++++......      ",
"      ...++++++++++++++...      ",
"      ...++++++++++++++...      ",
"    .....++++++++++++++.....    ",
"    ...++++++++++++++++++...    ",
"    ...++++++++++++++++++...    ",
"    ...++++++++++++++++++...    ",
"    ...++++++++++++++++++...    ",
"    ...++++++++++++++++++...    ",
"    ...++++++++++++++++++...    ",
"    ...++++++++++++++++++...    ",
"    ...++++++++++++++++++...    ",
"    .....++++++++++++++.....    ",
"      ...++++++++++++++...      ",
"      ...++++++++++++++...      ",
"      ......++++++++......      ",
"        ....++++++++....        ",
"        ................        ",
"           ..........           ",
"           ..........           ",
"                                ",
"                                ",
"                                ",
"                                "};
