/* XPM */
static char * wall1111_xpm[] = {
"32 32 112 2",
"  	c #51C4F1",
". 	c #5BC6F3",
"+ 	c #5DC5F5",
"@ 	c #61C6F6",
"# 	c #65C6F8",
"$ 	c #68C7F9",
"% 	c #6FC6FA",
"& 	c #78C6FC",
"* 	c #80C5FD",
"= 	c #80C6FD",
"- 	c #79C6FC",
"; 	c #6FC6FB",
"> 	c #67C6F9",
", 	c #65C5F7",
"' 	c #60C5F6",
") 	c #5CC4F5",
"! 	c #58C5F3",
"~ 	c #54C5F1",
"{ 	c #52C5F1",
"] 	c #51C5F1",
"^ 	c #50C6F0",
"/ 	c #50C5F1",
"( 	c #50C4F1",
"_ 	c #013A91",
": 	c #073BA2",
"< 	c #0C3AA7",
"[ 	c #133AB1",
"} 	c #1A3ABE",
"| 	c #233ACA",
"1 	c #2A3AD4",
"2 	c #3239DD",
"3 	c #353AE1",
"4 	c #363AE1",
"5 	c #323ADD",
"6 	c #2B3AD6",
"7 	c #1C39BE",
"8 	c #1439B3",
"9 	c #0D3AA8",
"0 	c #073A9F",
"a 	c #043A99",
"b 	c #023A94",
"c 	c #013A93",
"d 	c #013A92",
"e 	c #001841",
"f 	c #021B53",
"g 	c #051852",
"h 	c #09185D",
"i 	c #0D186A",
"j 	c #101875",
"k 	c #14187F",
"l 	c #171887",
"m 	c #17188C",
"n 	c #18188C",
"o 	c #171888",
"p 	c #151880",
"q 	c #101876",
"r 	c #0C186A",
"s 	c #09185E",
"t 	c #051753",
"u 	c #03184A",
"v 	c #011844",
"w 	c #011841",
"x 	c #011840",
"y 	c #001840",
"z 	c #001429",
"A 	c #00142A",
"B 	c #00142B",
"C 	c #00142C",
"D 	c #00142D",
"E 	c #01142D",
"F 	c #01142F",
"G 	c #021B54",
"H 	c #011B51",
"I 	c #011843",
"J 	c #021849",
"K 	c #061854",
"L 	c #0D186C",
"M 	c #141880",
"N 	c #18178C",
"O 	c #19178C",
"P 	c #101874",
"Q 	c #0D1769",
"R 	c #041852",
"S 	c #013B96",
"T 	c #013A90",
"U 	c #033A98",
"V 	c #073A9E",
"W 	c #1439B1",
"X 	c #1B39BF",
"Y 	c #223ACA",
"Z 	c #2B3AD5",
"` 	c #313ADC",
" .	c #2A3AD5",
"..	c #223AC9",
"+.	c #1A39BD",
"@.	c #0D3AA7",
"#.	c #4FC5F1",
"$.	c #50C5F0",
"%.	c #4FC5F0",
"&.	c #50C6F1",
"*.	c #51C5F2",
"=.	c #5CC5F5",
"-.	c #5EC5F6",
";.	c #64C5F8",
">.	c #66C6FA",
",.	c #79C6FD",
"'.	c #77C6FB",
").	c #6EC6FB",
"!.	c #63C6F7",
"~.	c #5FC6F6",
"{.	c #5CC6F5",
"].	c #59C7F4",
"    . + @ # $ % & * = - ; > , ' ) ! ~ { ] ^ ^ / (               ",
"_ _ : < [ } | 1 2 3 4 5 6 | 7 8 9 0 a b c d d d d _ d d _ _ _ _ ",
"e e f g h i j k l m n o p q r s t u v w w x y y x y y y e e e e ",
"z z z z z z z z z z z z z z z z z A A A A A A A A A A z z z z z ",
"z z z z z z z z z z z z z z z z z z z z z z z z z z z z z z z z ",
"z z z z z z z z z z z z z z z z z z z z z z z z z z z z z z z z ",
"z z z z z z z z z z z z z z z z z z z z z z z z z z z z z z z z ",
"z z z z z z z z z z z z z z z z z z z z z z z z z z z z z z z z ",
"z z z z z z z z z z z z z z z z z z z z z z z z z z z z z z z z ",
"z z z B z z z z z z z z z z z z z z z z z z z z z z z z z z z z ",
"z z z B z z z z z z z z z z z z z z z z z z z z z z z z z z z z ",
"z z z C z z z z z z z z z z z z z z z z z z z z z z z z z z z z ",
"z z z B z z z z z z z z z z z z z z z z z z z z z z z z z z z z ",
"z z z B z z z z z z z z z z z z z z z z z z z z z z z z z z z z ",
"z z z C z z z z z z z z z z z z z z z z z z z z z z z z z z z z ",
"z z z z z z z z z z z z z z z z z z z z z z z z z z z z z z z z ",
"z z z z z z z z z z z z z z z z z z z z z z z z z z z z z z z z ",
"z z z z z z z z z z z z z z z z z z z z z z z z z z z z z z z z ",
"z z z z z z z z z z z z z z z z z z z z z z z z z z z z z z z z ",
"z z z z z z z z z z z z z z z z z z z z z z z z z z z z z z z z ",
"z z z z z z z z z z z z z z z z z z z z z z z z z z z z A z z z ",
"z z z z z z z z z z z z z z z z z z z z z z z z z z z z A z z z ",
"z z z z z z z z z z z z z z z z z z z z z z z z z z z z A z z z ",
"z z z z z z z z z z z z z z z z z z z z z z z z z z z z A z z z ",
"z z z z z z z z z z z z z z z z z z z z z z z z z z z z A z z z ",
"z z z z z z z z z z z z z z z z z z z z z z z z z z z z A z z z ",
"z z z z z z z z z z z z z z z z z z z z z z z z z z z z A z z z ",
"z z z z z z z z z z z z z z z z z z z z z z z z z z z z A z z z ",
"z z z D A A A A A A A A A A A E F z z z z z z z z z z F C z z z ",
"G G H w x x x x y y y y y I J K s L q M o N O l k P Q h R G G G ",
": : S d T T T T T _ _ _ c U V 9 W X Y Z 5 3 3 `  ...+.W @.: : : ",
"    #.#.$.%.%.%.%./ / / &.*.! =.-.;.>.; ,.= * '.).> !.~.{.].    "};
