/* XPM */
static char * wall11_xpm[] = {
"32 32 178 2",
"  	c None",
". 	c #6AD6F6",
"+ 	c #5BC6F3",
"@ 	c #5DC5F5",
"# 	c #61C6F6",
"$ 	c #65C6F8",
"% 	c #68C7F9",
"& 	c #6FC6FA",
"* 	c #78C6FC",
"= 	c #80C5FD",
"- 	c #80C6FD",
"; 	c #79C6FC",
"> 	c #6FC6FB",
", 	c #67C6F9",
"' 	c #65C5F7",
") 	c #60C5F6",
"! 	c #5CC4F5",
"~ 	c #58C5F3",
"{ 	c #54C5F1",
"] 	c #52C5F1",
"^ 	c #51C5F1",
"/ 	c #50C6F0",
"( 	c #50C5F1",
"_ 	c #50C4F1",
": 	c #51C4F1",
"< 	c #68D5F5",
"[ 	c #1468C7",
"} 	c #073BA2",
"| 	c #0C3AA7",
"1 	c #133AB1",
"2 	c #1A3ABE",
"3 	c #233ACA",
"4 	c #2A3AD4",
"5 	c #3239DD",
"6 	c #353AE1",
"7 	c #363AE1",
"8 	c #323ADD",
"9 	c #2B3AD6",
"0 	c #1C39BE",
"a 	c #1439B3",
"b 	c #0D3AA8",
"c 	c #073A9F",
"d 	c #043A99",
"e 	c #023A94",
"f 	c #013A93",
"g 	c #013A92",
"h 	c #013A91",
"i 	c #55C9F1",
"j 	c #033B97",
"k 	c #021B53",
"l 	c #051852",
"m 	c #09185D",
"n 	c #0D186A",
"o 	c #101875",
"p 	c #14187F",
"q 	c #171887",
"r 	c #17188C",
"s 	c #18188C",
"t 	c #171888",
"u 	c #151880",
"v 	c #101876",
"w 	c #0C186A",
"x 	c #09185E",
"y 	c #051753",
"z 	c #03184A",
"A 	c #011844",
"B 	c #011841",
"C 	c #011840",
"D 	c #001840",
"E 	c #001841",
"F 	c #55C9F2",
"G 	c #023A91",
"H 	c #001429",
"I 	c #00142A",
"J 	c #55C9F0",
"K 	c #00183F",
"L 	c #023A90",
"M 	c #54C8F2",
"N 	c #023B90",
"O 	c #53C8F2",
"P 	c #00142B",
"Q 	c #53C8F1",
"R 	c #033A92",
"S 	c #54C8F1",
"T 	c #023A93",
"U 	c #00142C",
"V 	c #57C7F2",
"W 	c #033A95",
"X 	c #011842",
"Y 	c #5BC7F3",
"Z 	c #073A9A",
"` 	c #011847",
" .	c #5DC7F4",
"..	c #0A39A2",
"+.	c #03184E",
"@.	c #60C7F6",
"#.	c #113AAD",
"$.	c #061859",
"%.	c #63C7F7",
"&.	c #173AB8",
"*.	c #0A1863",
"=.	c #69C7F8",
"-.	c #1F3AC4",
";.	c #0F1870",
">.	c #6DC7F9",
",.	c #263AD0",
"'.	c #13187A",
").	c #75C7FB",
"!.	c #2F3ADA",
"~.	c #161884",
"{.	c #7DC7FD",
"].	c #353AE0",
"^.	c #17188A",
"/.	c #82C7FD",
"(.	c #373AE1",
"_.	c #3439DF",
":.	c #2E3AD9",
"<.	c #151884",
"[.	c #6CC7FA",
"}.	c #12187B",
"|.	c #66C7F9",
"1.	c #1F3AC3",
"2.	c #0E186F",
"3.	c #63C6F7",
"4.	c #1739B7",
"5.	c #5EC6F6",
"6.	c #113AAC",
"7.	c #061858",
"8.	c #5BC5F3",
"9.	c #0A3AA2",
"0.	c #04184E",
"a.	c #00142D",
"b.	c #01142D",
"c.	c #01142F",
"d.	c #5AC7F3",
"e.	c #053B9D",
"f.	c #011B51",
"g.	c #011843",
"h.	c #021849",
"i.	c #061854",
"j.	c #0D186C",
"k.	c #141880",
"l.	c #18178C",
"m.	c #19178C",
"n.	c #101874",
"o.	c #0D1769",
"p.	c #041852",
"q.	c #021B54",
"r.	c #6EDAF6",
"s.	c #1468C5",
"t.	c #013B96",
"u.	c #013A90",
"v.	c #033A98",
"w.	c #073A9E",
"x.	c #1439B1",
"y.	c #1B39BF",
"z.	c #223ACA",
"A.	c #2B3AD5",
"B.	c #313ADC",
"C.	c #2A3AD5",
"D.	c #223AC9",
"E.	c #1A39BD",
"F.	c #0D3AA7",
"G.	c #4FC5F1",
"H.	c #50C5F0",
"I.	c #4FC5F0",
"J.	c #50C6F1",
"K.	c #51C5F2",
"L.	c #5CC5F5",
"M.	c #5EC5F6",
"N.	c #64C5F8",
"O.	c #66C6FA",
"P.	c #79C6FD",
"Q.	c #77C6FB",
"R.	c #6EC6FB",
"S.	c #5FC6F6",
"T.	c #5CC6F5",
"U.	c #59C7F4",
"  . + @ # $ % & * = - ; > , ' ) ! ~ { ] ^ / / ( _ : : : : : : : ",
"< [ } | 1 2 3 4 5 6 7 8 9 3 0 a b c d e f g g g g h g g h h h h ",
"i j k l m n o p q r s t u v w x y z A B B C D D C D D D E E E E ",
"F G B H H H H H H H H H H H H H H I I I I I I I I I I H H H H H ",
"J G K H H H H H H H H H H H H H H H H H H H H H H H H H H H H H ",
"i L D H H H H H H H H H H H H H H H H H H H H H H H H H H H H H ",
"M N E I H H H H H H H H H H H H H H H H H H H H H H H H H H H H ",
"O N E P H H H H H H H H H H H H H H H H H H H H H H H H H H H H ",
"O N E P H H H H H H H H H H H H H H H H H H H H H H H H H H H H ",
"Q R K P H H H H H H H H H H H H H H H H H H H H H H H H H H H H ",
"Q R K P H H H H H H H H H H H H H H H H H H H H H H H H H H H H ",
"S T D U H H H H H H H H H H H H H H H H H H H H H H H H H H H H ",
"V W X P H H H H H H H H H H H H H H H H H H H H H H H H H H H H ",
"Y Z ` P H H H H H H H H H H H H H H H H H H H H H H H H H H H H ",
" ...+.U H H H H H H H H H H H H H H H H H H H H H H H H H H H H ",
"@.#.$.H H H H H H H H H H H H H H H H H H H H H H H H H H H H H ",
"%.&.*.H H H H H H H H H H H H H H H H H H H H H H H H H H H H H ",
"=.-.;.H H H H H H H H H H H H H H H H H H H H H H H H H H H H H ",
">.,.'.H H H H H H H H H H H H H H H H H H H H H H H H H H H H H ",
").!.~.H H H H H H H H H H H H H H H H H H H H H H H H H H H H H ",
"{.].^.H H H H H H H H H H H H H H H H H H H H H H H H H I H H H ",
"/.(.s H H H H H H H H H H H H H H H H H H H H H H H H H I H H H ",
"{._.^.H H H H H H H H H H H H H H H H H H H H H H H H H I H H H ",
").:.<.H H H H H H H H H H H H H H H H H H H H H H H H H I H H H ",
"[.,.}.H H H H H H H H H H H H H H H H H H H H H H H H H I H H H ",
"|.1.2.H H H H H H H H H H H H H H H H H H H H H H H H H I H H H ",
"3.4.*.H H H H H H H H H H H H H H H H H H H H H H H H H I H H H ",
"5.6.7.H H H H H H H H H H H H H H H H H H H H H H H H H I H H H ",
"8.9.0.a.I I I I I I I I I I I b.c.H H H H H H H H H H c.U H H H ",
"d.e.f.B C C C C D D D D D g.h.i.x j.v k.t l.m.q p n.o.m p.q.q.q.",
"r.s.t.g u.u.u.u.u.h h h f v.w.b x.y.z.A.8 6 6 B.C.D.E.x.F.} } } ",
"  . G.G.H.I.I.I.I.( ( ( J.K.~ L.M.N.O.> P.- = Q.R., 3.S.T.U.: : "};
