/* XPM */
static char * X0_xpm[] = {
"32 32 71 1",
" 	c None",
".	c #E60012",
"+	c #E60008",
"@	c #E60000",
"#	c #E6000F",
"$	c #E38889",
"%	c #E1B7B7",
"&	c #E61B23",
"*	c #E1B0B0",
"=	c #E2A8A9",
"-	c #E6000C",
";	c #E2A6A6",
">	c #DEDEDE",
",	c #E6232A",
"'	c #E60011",
")	c #DFD6D6",
"!	c #E0C4C5",
"~	c #E29B9B",
"{	c #E0C3C3",
"]	c #E29FA0",
"^	c #E29F9F",
"/	c #E63438",
"(	c #E54B4E",
"_	c #E29D9E",
":	c #DEDADA",
"<	c #DFD1D1",
"[	c #E29C9D",
"}	c #E60002",
"|	c #DEDBDB",
"1	c #DDDDDD",
"2	c #DBDBDB",
"3	c #DBDDDD",
"4	c #E54C4F",
"5	c #E46D6F",
"6	c #DEE0E0",
"7	c #DCDCDC",
"8	c #B8B8B8",
"9	c #0542F3",
"0	c #DB0010",
"a	c #E46D6E",
"b	c #E0E0E0",
"c	c #6A6A6A",
"d	c #B9B9B9",
"e	c #DB0011",
"f	c #6B6B6B",
"g	c #E80012",
"h	c #E6000B",
"i	c #E2A0A1",
"j	c #E0C5C5",
"k	c #CCCCCC",
"l	c #A2A2A2",
"m	c #A9171C",
"n	c #A7000A",
"o	c #E10011",
"p	c #E54E51",
"q	c #E2A3A4",
"r	c #DFDFDF",
"s	c #B1B1B1",
"t	c #A49090",
"u	c #A90000",
"v	c #B1000B",
"w	c #E70012",
"x	c #E60009",
"y	c #E6242A",
"z	c #E38B8C",
"A	c #E1BBBC",
"B	c #E61C24",
"C	c #E1B4B5",
"D	c #E2A5A6",
"E	c #E60005",
"F	c #E60112",
"                                ",
"                                ",
"                                ",
"             ......             ",
"             .......            ",
"         ..............         ",
"         ..............         ",
"       ...+@@@.......@@@@       ",
"      ...#$%%%&.....@*%%=@.     ",
"      ...-;>>>,'....@)>>!@'     ",
"      ..-~{>>>]^/..(_:>><[_     ",
"      ..}|>>12234..56>>7222     ",
"      ..}:>>89990..a6>bc999     ",
"      ..}:>>d999e..a6>bf999     ",
"   .....}|>>d999e..56>bf999g    ",
"   .....hij>klmno..pq:rstuvw    ",
"   ......x;>>>y....'@)>>j@..    ",
"   ......#zAAAB.....@CAAD@..    ",
"   .......E@@@......F@@@@F..    ",
"   .........................    ",
"   .........................    ",
"   .........................    ",
"   .........................    ",
"   .........................    ",
"   .........................    ",
"   .......  ........ .......    ",
"     ...      ....     ...      ",
"      ..      ....     ...      ",
"                                ",
"                                ",
"                                ",
"                                "};
