/* XPM */
static char * X1_xpm[] = {
"32 32 78 1",
" 	c None",
".	c #E60012",
"+	c #E60010",
"@	c #E56062",
"#	c #E47E80",
"$	c #E47E7F",
"%	c #E60A18",
"&	c #E60009",
"*	c #E47A7C",
"=	c #E4797A",
"-	c #E6000A",
";	c #E2ABAC",
">	c #DEDFDF",
",	c #E61B23",
"'	c #E60000",
")	c #DED9D9",
"!	c #E0C2C2",
"~	c #E60011",
"{	c #E5585A",
"]	c #E1B3B3",
"^	c #DEDEDE",
"/	c #E55E60",
"(	c #E55B5D",
"_	c #E61720",
":	c #E62B30",
"<	c #E55659",
"[	c #DED8D8",
"}	c #E0C6C6",
"|	c #E55658",
"1	c #E55A5C",
"2	c #E6000E",
"3	c #DEDDDD",
"4	c #DFDFDF",
"5	c #E0E0E0",
"6	c #E0E2E2",
"7	c #E0E4E4",
"8	c #E5484B",
"9	c #E47476",
"0	c #DEE2E2",
"a	c #E0E1E1",
"b	c #DEDBDB",
"c	c #BBBBBB",
"d	c #0542F3",
"e	c #DE171F",
"f	c #E47374",
"g	c #DEE0E0",
"h	c #7F7F7F",
"i	c #B5B5B5",
"j	c #DD0011",
"k	c #656565",
"l	c #E90012",
"m	c #E6000F",
"n	c #E0CACA",
"o	c #DFD6D7",
"p	c #BDBDBD",
"q	c #606060",
"r	c #660609",
"s	c #610003",
"t	c #DF0011",
"u	c #E46A6B",
"v	c #DFCECE",
"w	c #848484",
"x	c #635455",
"y	c #660000",
"z	c #800005",
"A	c #E80012",
"B	c #E2A9AA",
"C	c #E81B24",
"D	c #E60008",
"E	c #DFD7D7",
"F	c #E2C3C3",
"G	c #E80000",
"H	c #E2A6A6",
"I	c #DFD7D8",
"J	c #E61A22",
"K	c #DFD1D2",
"L	c #E1BCBC",
"M	c #E60112",
"                                ",
"                                ",
"                                ",
"                                ",
"             .......            ",
"         ..............         ",
"         ..............         ",
"       ..................       ",
"       ..+@##$%.....&*##=       ",
"     ....-;>>>,.....')>>!'.     ",
"     ...~{]^^^/(_..:<[^^}|1     ",
"     ...23>^45678..90^^5a66     ",
"     ...2b^^cddde..fg^5hddd     ",
"     ...2b^^idddj..fg^5kddd     ",
"   .....2b^^idddj..fg^5kdddl    ",
"   .....mno^pqrst..uv35wxyzA    ",
"   ......'B^45CA...D'E^5FGA.    ",
"   ......-H[[IJ.....'K[[L'..    ",
"   .......''''......M''''M..    ",
"   .........................    ",
"   .........................    ",
"   .........................    ",
"   .........................    ",
"   .........................    ",
"   .........................    ",
"   ...  ......    .....  ...    ",
"   ..     ....    ...      .    ",
"   ..     ....    ...      .    ",
"           ...    ...      .    ",
"                                ",
"                                ",
"                                "};
