/* XPM */
static char * X2_xpm[] = {
"32 32 73 1",
" 	c None",
".	c #E60012",
"+	c #E60011",
"@	c #E29D9E",
"#	c #E47071",
"$	c #E56466",
"%	c #E29E9E",
"&	c #E29E9F",
"*	c #E62E33",
"=	c #DEDFDF",
"-	c #DEDEDE",
";	c #E2A0A1",
">	c #E60010",
",	c #E38F90",
"'	c #DEE0E0",
")	c #E54548",
"!	c #E48384",
"~	c #E1B4B5",
"{	c #E47D7F",
"]	c #E56869",
"^	c #E6000C",
"/	c #E60006",
"(	c #E47879",
"_	c #E2AAAB",
":	c #E3898A",
"<	c #E47F80",
"[	c #E63A3E",
"}	c #DFE0E0",
"|	c #DFDFDF",
"1	c #E1BABA",
"2	c #E60000",
"3	c #E0D6D6",
"4	c #DEE1E1",
"5	c #E46C6E",
"6	c #0542F3",
"7	c #DBDBDB",
"8	c #E1B9B9",
"9	c #E80011",
"0	c #757575",
"a	c #E0E0E0",
"b	c #E46B6D",
"c	c #DADADA",
"d	c #E80012",
"e	c #6D6D6D",
"f	c #A6000A",
"g	c #C0000D",
"h	c #89171A",
"i	c #848585",
"j	c #838383",
"k	c #DCDCDC",
"l	c #DFCDCD",
"m	c #E1BBBC",
"n	c #E29B9C",
"o	c #E60002",
"p	c #E70012",
"q	c #960008",
"r	c #875354",
"s	c #9D9D9D",
"t	c #E0BFBF",
"u	c #E0BDBD",
"v	c #E55A5C",
"w	c #E72E33",
"x	c #E29F9F",
"y	c #E49091",
"z	c #E54043",
"A	c #E6000E",
"B	c #E62A2F",
"C	c #DFCECE",
"D	c #E39394",
"E	c #E48485",
"F	c #DFCFCF",
"G	c #E53F43",
"H	c #E6000F",
"                                ",
"                                ",
"                                ",
"                                ",
"             .......            ",
"         ..............         ",
"         ..............         ",
"       ++++.......+++....       ",
"       @@@#+.....$%@&*...       ",
"      *=-=;>.....,=-').....     ",
"      !=--~{]^./(_=-=:<[...     ",
"      }||-==12.23}||-=45...     ",
"      6667--82.96660a-'b...     ",
"      666c--82.d666ea-'b...     ",
"   ..f666c--82.d666ea-'b....    ",
"   ..ghijklmno.pqris}tuv....    ",
"   ..pw}|-x22...py}|'z2A....    ",
"   ...BClCD>.....EClFG......    ",
"   ...+2222......o222H......    ",
"   .........................    ",
"   .........................    ",
"   .........................    ",
"   .........................    ",
"   .........................    ",
"   .........................    ",
"   .......  ........ .......    ",
"     ...      ....     ...      ",
"      ..      ....     ...      ",
"                                ",
"                                ",
"                                ",
"                                "};
