/* XPM */
static char * X3_xpm[] = {
"32 32 74 1",
" 	c None",
".	c #E60012",
"+	c #E60000",
"@	c #E6000D",
"#	c #E60001",
"$	c #DFD5D5",
"%	c #DED8D8",
"&	c #E1B4B5",
"*	c #E4696A",
"=	c #DEDADA",
"-	c #E46A6B",
";	c #DEDEDE",
">	c #E1B8B9",
",	c #E60113",
"'	c #E56869",
")	c #DEE0E0",
"!	c #E4686A",
"~	c #E60002",
"{	c #DFCDCD",
"]	c #DEDDDD",
"^	c #DED8D9",
"/	c #E1BCBC",
"(	c #E1B5B6",
"_	c #DFD1D1",
":	c #DFCECE",
"<	c #E48384",
"[	c #C0C0C0",
"}	c #BFBFBF",
"|	c #DADADA",
"1	c #DFCCCC",
"2	c #E70000",
"3	c #CAAAAA",
"4	c #C2C2C2",
"5	c #DFDFDF",
"6	c #DEDFDF",
"7	c #E38F8F",
"8	c #0542F3",
"9	c #D1D1D1",
"0	c #E80113",
"a	c #760000",
"b	c #E0E0E0",
"c	c #E80012",
"d	c #780005",
"e	c #C4000E",
"f	c #750004",
"g	c #DEE1E1",
"h	c #E39091",
"i	c #E20011",
"j	c #D60000",
"k	c #CFCCCC",
"l	c #CFCFCF",
"m	c #DCDCDC",
"n	c #E0BFC0",
"o	c #E5595B",
"p	c #E55456",
"q	c #DA0010",
"r	c #D56465",
"s	c #CFD1D1",
"t	c #D0D0D0",
"u	c #E38586",
"v	c #E55C5E",
"w	c #E6383C",
"x	c #DEDCDC",
"y	c #E1BABB",
"z	c #E46C6E",
"A	c #E46D6F",
"B	c #E6000E",
"C	c #E47E80",
"D	c #E48182",
"E	c #E46A6C",
"F	c #E6000C",
"G	c #E63C3F",
"H	c #E48283",
"I	c #E63C40",
"                                ",
"                                ",
"                                ",
"             .......            ",
"            ........            ",
"         ..............         ",
"         ...............        ",
"       ++++......@+++@...       ",
"      #$%%&+.....*=%=-.....     ",
"      +=;;>++,.,+');)!+~...     ",
"      {];;^{/+.+(_;;;_:<...     ",
"      [[}|;;1+.23[[45;67...     ",
"      8889;;1+.0a888b;67...     ",
"      8889;;1+.cd888b;67...     ",
"    .e88896):+.cf888b)gh....    ",
"    .ijklmnop@..qrst)uvw....    ",
"    ..+x66y+.....zg6gA......    ",
"    ..BCDDEF.....GHDHI......    ",
"    ........................    ",
"    ........................    ",
"    ........................    ",
"    ........................    ",
"    ........................    ",
"    ........................    ",
"    ... .......  ....... ...    ",
"    ..   .....    .....   ..    ",
"    .      ...    ...      .    ",
"    .      ...    ...      .    ",
"                                ",
"                                ",
"                                ",
"                                "};
