/* XPM */
static char * X5_xpm[] = {
"32 32 72 1",
" 	c None",
".	c #E60012",
"+	c #E60011",
"@	c #E61C24",
"#	c #E61E25",
"$	c #E61B23",
"%	c #E60414",
"&	c #E61E26",
"*	c #E60F1B",
"=	c #E60000",
"-	c #DFD1D1",
";	c #DEDEDE",
">	c #DFCBCC",
",	c #E60010",
"'	c #E6000F",
")	c #E54145",
"!	c #DEE0E0",
"~	c #DEDFDF",
"{	c #E38D8E",
"]	c #E60008",
"^	c #E1B3B3",
"/	c #E1B5B6",
"(	c #DED9D9",
"_	c #DFD8D8",
":	c #E1B7B7",
"<	c #E53F42",
"[	c #E55759",
"}	c #E1B8B8",
"|	c #E1BABA",
"1	c #E0C6C6",
"2	c #E1ADAE",
"3	c #E60001",
"4	c #DEDADA",
"5	c #E54E51",
"6	c #E46C6D",
"7	c #DFD4D4",
"8	c #DBDBDB",
"9	c #DCDCDC",
"0	c #DDDDDD",
"a	c #E0E0E0",
"b	c #0542F3",
"c	c #636363",
"d	c #E0E2E2",
"e	c #D6D6D6",
"f	c #B4B4B4",
"g	c #DEDBDB",
"h	c #E0E1E1",
"i	c #646565",
"j	c #E0E3E3",
"k	c #E54F51",
"l	c #E46C6E",
"m	c #DEE1E1",
"n	c #D6D7D7",
"o	c #B4B5B5",
"p	c #DFD5D5",
"q	c #E63136",
"r	c #E83337",
"s	c #671113",
"t	c #E83338",
"u	c #E60B18",
"v	c #E6131D",
"w	c #E63337",
"x	c #DD3034",
"y	c #BA272B",
"z	c #E62F34",
"A	c #E70012",
"B	c #B2000B",
"C	c #A8000A",
"D	c #B5000C",
"E	c #E20011",
"F	c #A7000A",
"G	c #D2000F",
"                                ",
"                                ",
"                                ",
"                                ",
"             .......            ",
"         ..............         ",
"         ..............         ",
"       ..................       ",
"       ..................       ",
"      .....................     ",
"      ..+@##$+.....%&#&*...     ",
"      .==-;;>=,..'=)!;~{=..     ",
"      ]^/(;;_:<..[}|~;;12=.     ",
"      34;;;;;!5..6!;;;;;7=.     ",
"     .34;;;;;!5..6!;;;;;7=.     ",
"    ..=4;8889!5..6!;88807=..    ",
"    ..=4abbbcd5..6!ebbbf7=..    ",
"    ..=ghbbbijk..lmnbbbop=..    ",
"    ..+qrbbbstu..vwxbbbyz+..    ",
"    ....ABCCDA.....EFCCG....    ",
"    ........................    ",
"    ........................    ",
"    ........................    ",
"    ........................    ",
"    ........................    ",
"    ..  ......    .....  ...    ",
"    ..   .....    .....   ..    ",
"    .      ...    ...      .    ",
"    .      ...    ...      .    ",
"                                ",
"                                ",
"                                "};
