/* XPM */
static char * X6_xpm[] = {
"32 32 60 1",
" 	c None",
".	c #E60012",
"+	c #0542F3",
"@	c #8F0007",
"#	c #E70012",
"$	c #D0000F",
"%	c #8E0000",
"&	c #E70000",
"*	c #E60011",
"=	c #E60002",
"-	c #E60000",
";	c #CF0000",
">	c #DEDEDE",
",	c #DFDFDF",
"'	c #898282",
")	c #E0D5D5",
"!	c #E62128",
"~	c #E38889",
"{	c #DFD4D4",
"]	c #C9BEBF",
"^	c #C7C7C7",
"/	c #929292",
"(	c #8E8E8E",
"_	c #AFAFAF",
":	c #E6242A",
"<	c #E38F90",
"[	c #DEDFDF",
"}	c #D1D1D1",
"|	c #8C8C8C",
"1	c #DFD3D3",
"2	c #E62E33",
"3	c #E0C4C5",
"4	c #DEE1E1",
"5	c #DEE0E0",
"6	c #E39091",
"7	c #E0C6C6",
"8	c #E60817",
"9	c #E5474A",
"0	c #E54447",
"a	c #DEDBDB",
"b	c #E1BCBC",
"c	c #E54246",
"d	c #E60515",
"e	c #E62A30",
"f	c #E47C7D",
"g	c #E47B7C",
"h	c #E53D41",
"i	c #E60010",
"j	c #DEDCDC",
"k	c #E1BABA",
"l	c #E46E6F",
"m	c #DEE2E2",
"n	c #E46C6E",
"o	c #E6000F",
"p	c #E46B6D",
"q	c #E46D6E",
"r	c #E5595C",
"s	c #E6000E",
"t	c #E63237",
"u	c #E63136",
"                                ",
"                                ",
"                                ",
"                                ",
"             .......            ",
"         +++@#.....$+++         ",
"         +++%&*..=-;+++         ",
"       >,+++')!..~{]+++^>       ",
"       >>/((_,:..<[}|(|}1       ",
"      2[>,,,,>:..<[>,,,>3-.     ",
"      2[>>>>>>:..<[>>>>>3-.     ",
"      245>>>[5:..64[>>>[7-.     ",
"      890a>>bcd..e9f5>5ghi.     ",
"      ..=j55k-.....lm5mn...     ",
"   .....opqqrs.....tlqlu....    ",
"   .........................    ",
"   .........................    ",
"   .........................    ",
"   .........................    ",
"   .........................    ",
"   .........................    ",
"   .........................    ",
"   .........................    ",
"   .........................    ",
"   .........................    ",
"   .......  ........ .......    ",
"     ....     ....     ...      ",
"      ..      ....     ...      ",
"                         .      ",
"                                ",
"                                ",
"                                "};
