/* XPM */
static char * X7_xpm[] = {
"32 32 60 1",
" 	c None",
".	c #E60012",
"+	c #E70012",
"@	c #E40012",
"#	c #0542F3",
"$	c #670003",
"%	c #E80012",
"&	c #DD0011",
"*	c #681F21",
"=	c #E75254",
"-	c #E61720",
";	c #E62229",
">	c #E55153",
",	c #DD4D4F",
"'	c #DEDEDE",
")	c #E0E0E0",
"!	c #5F6060",
"~	c #E0E4E4",
"{	c #E54F52",
"]	c #E46D6E",
"^	c #DEE2E2",
"/	c #D5D7D7",
"(	c #B4B4B4",
"_	c #E60000",
":	c #DEDBDB",
"<	c #CFCFCF",
"[	c #CCCCCC",
"}	c #DEE0E0",
"|	c #E54E51",
"1	c #E46C6D",
"2	c #DDDDDD",
"3	c #D8D8D8",
"4	c #DFD5D5",
"5	c #E60001",
"6	c #DEDADA",
"7	c #DFD4D4",
"8	c #E60003",
"9	c #DFCDCE",
"0	c #DFD1D1",
"a	c #DEDCDC",
"b	c #DFD3D3",
"c	c #E5494C",
"d	c #E56567",
"e	c #DFD2D2",
"f	c #DFD6D6",
"g	c #E0C7C7",
"h	c #DFCBCC",
"i	c #E6000E",
"j	c #E6000A",
"k	c #E63D40",
"l	c #DEDFDF",
"m	c #E38C8D",
"n	c #E60113",
"o	c #DFCECE",
"p	c #E0C8C9",
"q	c #E54447",
"r	c #E60005",
"s	c #E60002",
"t	c #E60011",
"u	c #E6000D",
"                                ",
"                                ",
"                                ",
"             .......            ",
"             +.....@            ",
"         ###$%.....&###         ",
"         ###*=-..;>,###         ",
"       ')###!~{..]^/###('       ",
"      _:'<[[<}|..1}2[[[34_.     ",
"      56'''''}|..1}'''''7_.     ",
"      56'''''}|..1}'''''7_.     ",
"      890a''abc..dbe'''fg_.     ",
"      .__0''h_i..j_k}'lm_n.     ",
"      .._o66p_.....qa6:m...     ",
"    .....rssr......tsssu....    ",
"    ........................    ",
"    ........................    ",
"    ........................    ",
"    ........................    ",
"    ........................    ",
"    ........................    ",
"    ........................    ",
"    ........................    ",
"    ........................    ",
"    ........................    ",
"    ..  ......    .....   ..    ",
"    .      ...    ...      .    ",
"    .      ...    ...      .    ",
"                                ",
"                                ",
"                                ",
"                                "};
